<svg width="63" height="62" viewBox="0 0 63 62" fill="none" xmlns="http://www.w3.org/2000/svg">
<circle cx="31.8197" cy="30.9434" r="30.4434" fill="#919191" stroke="#B9B6B1"/>
<g filter="url(#filter0_i_63_11)">
<circle cx="31.8196" cy="30.9431" r="24.0671" fill="url(#paint0_linear_63_11)"/>
</g>
<circle cx="31.8196" cy="30.9431" r="23.5671" stroke="#BBB9B4"/>
<path d="M30.4526 44.8615L30.019 44.8039C29.1443 44.6863 28.3008 44.484 27.4878 44.1974C26.6579 43.9049 25.9872 43.6135 25.4692 43.3263C24.9367 43.0311 24.4463 42.7176 23.9975 42.3859C23.5295 42.0399 23.232 41.8008 23.0844 41.6613C22.9992 41.5806 22.9306 41.514 22.8774 41.4601L22.7612 41.3361C22.6947 41.2536 22.6929 41.2138 22.6928 41.2121C22.6927 41.2101 22.6923 41.2055 22.6958 41.1955C22.6999 41.1838 22.7107 41.1611 22.7358 41.1281L22.7348 41.1271L24.8589 38.3859L24.8647 38.3771L24.8706 38.3693L24.8716 38.3683C24.8724 38.3676 24.876 38.3652 24.8833 38.3615C24.899 38.3534 24.9344 38.3392 24.9995 38.3312V38.3322L25.0034 38.3312C25.0222 38.3288 25.0339 38.3288 25.0395 38.3293H25.0415C25.0431 38.3308 25.045 38.3341 25.0483 38.3381L25.0649 38.3566L25.1352 38.4269L25.1479 38.4377C26.7595 39.8291 28.5084 40.7196 30.3921 41.091C30.9322 41.2056 31.4736 41.2638 32.0161 41.2638C33.2227 41.2638 34.3041 40.9463 35.2407 40.3009C36.2286 39.62 36.726 38.6354 36.726 37.4084C36.726 36.9328 36.595 36.4841 36.3432 36.0705C36.1157 35.6967 35.8552 35.373 35.56 35.1056C35.2559 34.8303 34.8064 34.5525 34.2426 34.2677C33.6884 33.9878 33.2256 33.7658 32.8559 33.6047C32.4874 33.444 31.9274 33.22 31.1831 32.9347C30.6504 32.7194 30.2291 32.55 29.9194 32.4279C29.6193 32.3096 29.2034 32.1338 28.6694 31.8976C28.1405 31.6637 27.7265 31.4609 27.4233 31.2892C27.1129 31.1135 26.7342 30.8789 26.2856 30.5841C25.8497 30.2978 25.5101 30.0296 25.2583 29.7814C24.9917 29.5187 24.7039 29.2004 24.396 28.8244C24.105 28.469 23.8868 28.115 23.7358 27.7638C23.5775 27.3955 23.4419 26.973 23.3305 26.4953C23.223 26.0338 23.1684 25.5431 23.1684 25.0226C23.1685 23.2864 23.7889 21.7678 25.0522 20.4464C26.3192 19.1215 27.9748 18.2573 30.0454 17.8673L30.4526 17.7912V13.715C30.4527 13.6789 30.4601 13.6533 30.4995 13.6144C30.5393 13.5751 30.5691 13.5646 30.6128 13.5646H33.3989C33.4752 13.5647 33.5022 13.5843 33.5219 13.6037C33.5411 13.6226 33.559 13.6458 33.5591 13.715V17.7453L34.0073 17.7922C34.759 17.8701 35.4865 18.0191 36.1899 18.2394C36.9128 18.4658 37.486 18.6848 37.9165 18.8937C38.3549 19.1065 38.7693 19.3484 39.1606 19.6183C39.5775 19.906 39.822 20.0859 39.9204 20.172C40.0338 20.2714 40.1259 20.3557 40.1977 20.4259V20.4269C40.2303 20.4609 40.2478 20.4863 40.2563 20.5021C40.2605 20.5099 40.2621 20.5156 40.2632 20.5187C40.2641 20.5217 40.2651 20.5233 40.2651 20.5236V20.5246C40.2651 20.5255 40.2643 20.5287 40.2632 20.5334C40.2608 20.5429 40.2537 20.563 40.2348 20.5939L40.2309 20.6007L40.227 20.6086L38.5551 23.5773L38.5512 23.5851C38.527 23.63 38.5097 23.643 38.5073 23.6447C38.5061 23.6455 38.505 23.6461 38.5034 23.6466C38.5015 23.6473 38.4956 23.6488 38.4839 23.6496L38.4477 23.6515L38.4126 23.6593C38.3901 23.664 38.3617 23.6672 38.3149 23.6427L38.2612 23.6076C38.1898 23.5442 38.0864 23.4598 37.9653 23.3664C37.7864 23.2284 37.5001 23.038 37.1206 22.8C36.7232 22.5508 36.3018 22.3234 35.8569 22.1183C35.3968 21.9063 34.8552 21.7209 34.2368 21.5597C33.6001 21.3938 32.9694 21.3097 32.3462 21.3097C30.9661 21.3097 29.7904 21.6176 28.8589 22.2756C27.9158 22.9417 27.4096 23.8399 27.4096 24.9416C27.4096 25.3503 27.4777 25.7388 27.6196 26.1007C27.7699 26.484 28.0231 26.8265 28.3559 27.131C28.6559 27.4055 28.9435 27.6422 29.2173 27.839C29.5108 28.05 29.9301 28.2761 30.4555 28.5177C30.9742 28.7563 31.3979 28.9426 31.7241 29.0754C32.0467 29.2067 32.5337 29.3954 33.1811 29.6398L33.1831 29.6408C33.9107 29.9114 34.4628 30.1223 34.8413 30.2756C35.2117 30.4255 35.7236 30.6579 36.3803 30.9748C37.0297 31.2881 37.5241 31.564 37.8735 31.8019C38.2291 32.044 38.6387 32.3683 39.103 32.7795C39.5467 33.1724 39.8733 33.5624 40.0952 33.9464C40.3265 34.347 40.5296 34.8293 40.6997 35.3966C40.8633 35.9425 40.9467 36.5309 40.9467 37.1642C40.9467 39.1169 40.3065 40.7819 39.0239 42.1857C37.7383 43.5928 36.0658 44.4695 33.979 44.8058L33.5591 44.8732V48.8586C33.559 48.9278 33.5411 48.951 33.5219 48.9699C33.5022 48.9893 33.4752 49.0089 33.3989 49.0089H30.6128C30.5691 49.0089 30.5392 48.9992 30.4995 48.9601C30.4599 48.9211 30.4526 48.8948 30.4526 48.8586V44.8615Z" fill="url(#paint1_linear_63_11)" stroke="#BBB9B4"/>
<defs>
<filter id="filter0_i_63_11" x="7.75256" y="6.87598" width="48.1342" height="48.1342" filterUnits="userSpaceOnUse" color-interpolation-filters="sRGB">
<feFlood flood-opacity="0" result="BackgroundImageFix"/>
<feBlend mode="normal" in="SourceGraphic" in2="BackgroundImageFix" result="shape"/>
<feColorMatrix in="SourceAlpha" type="matrix" values="0 0 0 0 0 0 0 0 0 0 0 0 0 0 0 0 0 0 127 0" result="hardAlpha"/>
<feOffset dx="1" dy="3"/>
<feComposite in2="hardAlpha" operator="arithmetic" k2="-1" k3="1"/>
<feColorMatrix type="matrix" values="0 0 0 0 0 0 0 0 0 0 0 0 0 0 0 0 0 0 0.25 0"/>
<feBlend mode="normal" in2="shape" result="effect1_innerShadow_63_11"/>
</filter>
<linearGradient id="paint0_linear_63_11" x1="55.8867" y1="30.9431" x2="7.75256" y2="30.9431" gradientUnits="userSpaceOnUse">
<stop stop-color="#ADADAD"/>
<stop offset="1" stop-color="#919191"/>
</linearGradient>
<linearGradient id="paint1_linear_63_11" x1="41.4465" y1="31.2868" x2="22.1928" y2="31.2868" gradientUnits="userSpaceOnUse">
<stop stop-color="#919191"/>
<stop offset="1" stop-color="#ADADAD"/>
</linearGradient>
</defs>
</svg>
