<svg width="214" height="214" viewBox="0 0 214 214" fill="none" xmlns="http://www.w3.org/2000/svg">
<circle cx="106.801" cy="107.039" r="104.731" fill="#FFD364" stroke="#DD9000" stroke-width="3"/>
<g filter="url(#filter0_i_1751_570)">
<circle cx="106.801" cy="107.037" r="82.6242" fill="url(#paint0_linear_1751_570)"/>
</g>
<circle cx="106.801" cy="107.037" r="81.1242" stroke="#DD9000" stroke-width="3"/>
<path d="M106.801 62.2168C132.206 62.2168 152.801 82.8117 152.801 108.217C152.801 133.622 132.206 154.217 106.801 154.217C81.3958 154.217 60.8009 133.622 60.8009 108.217C60.8009 82.8117 81.3958 62.2168 106.801 62.2168ZM106.801 79.2168C90.7846 79.2168 77.8009 92.2005 77.8009 108.217C77.8009 124.233 90.7846 137.217 106.801 137.217C122.817 137.217 135.801 124.233 135.801 108.217C135.801 92.2005 122.817 79.2168 106.801 79.2168Z" fill="url(#paint1_linear_1751_570)"/>
<path d="M106.801 62.2168V62.7168C131.93 62.7168 152.301 83.0878 152.301 108.217H152.801H153.301C153.301 82.5356 132.482 61.7168 106.801 61.7168V62.2168ZM152.801 108.217H152.301C152.301 133.346 131.93 153.717 106.801 153.717V154.217V154.717C132.482 154.717 153.301 133.898 153.301 108.217H152.801ZM106.801 154.217V153.717C81.6719 153.717 61.3009 133.346 61.3009 108.217H60.8009H60.3009C60.3009 133.898 81.1197 154.717 106.801 154.717V154.217ZM60.8009 108.217H61.3009C61.3009 83.0878 81.6719 62.7168 106.801 62.7168V62.2168V61.7168C81.1197 61.7168 60.3009 82.5356 60.3009 108.217H60.8009ZM106.801 79.2168V78.7168C90.5085 78.7168 77.3009 91.9244 77.3009 108.217H77.8009H78.3009C78.3009 92.4767 91.0608 79.7168 106.801 79.7168V79.2168ZM77.8009 108.217H77.3009C77.3009 124.509 90.5085 137.717 106.801 137.717V137.217V136.717C91.0608 136.717 78.3009 123.957 78.3009 108.217H77.8009ZM106.801 137.217V137.717C123.093 137.717 136.301 124.509 136.301 108.217H135.801H135.301C135.301 123.957 122.541 136.717 106.801 136.717V137.217ZM135.801 108.217H136.301C136.301 91.9244 123.093 78.7168 106.801 78.7168V79.2168V79.7168C122.541 79.7168 135.301 92.4767 135.301 108.217H135.801Z" fill="#CE952B"/>
<defs>
<filter id="filter0_i_1751_570" x="24.1768" y="24.4131" width="165.248" height="165.248" filterUnits="userSpaceOnUse" color-interpolation-filters="sRGB">
<feFlood flood-opacity="0" result="BackgroundImageFix"/>
<feBlend mode="normal" in="SourceGraphic" in2="BackgroundImageFix" result="shape"/>
<feColorMatrix in="SourceAlpha" type="matrix" values="0 0 0 0 0 0 0 0 0 0 0 0 0 0 0 0 0 0 127 0" result="hardAlpha"/>
<feOffset dx="1" dy="3"/>
<feComposite in2="hardAlpha" operator="arithmetic" k2="-1" k3="1"/>
<feColorMatrix type="matrix" values="0 0 0 0 0 0 0 0 0 0 0 0 0 0 0 0 0 0 0.25 0"/>
<feBlend mode="normal" in2="shape" result="effect1_innerShadow_1751_570"/>
</filter>
<linearGradient id="paint0_linear_1751_570" x1="24.1768" y1="107.037" x2="189.425" y2="107.037" gradientUnits="userSpaceOnUse">
<stop stop-color="#FFCE52"/>
<stop offset="1" stop-color="#FFE9B2"/>
</linearGradient>
<linearGradient id="paint1_linear_1751_570" x1="106.801" y1="62.2168" x2="106.801" y2="154.217" gradientUnits="userSpaceOnUse">
<stop stop-color="#C18B00"/>
<stop offset="1" stop-color="#E7B22A"/>
</linearGradient>
</defs>
</svg>
