<svg xmlns="http://www.w3.org/2000/svg" width="32" height="32" viewBox="0 0 32 32" fill="none">
  <rect x="1" y="1" width="30" height="30" rx="8" fill="#191817"/>
  <rect x="0.5" y="0.5" width="31" height="31" rx="8.5" stroke="#434343" stroke-opacity="0.8"/>
  <path d="M7.52474 23.5625C9.62477 25.5608 12.386 26.6016 15.8084 26.6849C19.2308 26.7682 22.0058 25.8621 24.1334 23.9666C26.2611 22.0712 27.3632 19.5465 27.44 16.3925C27.5184 13.1714 26.5411 10.5625 24.5082 8.56585C22.4752 6.56917 19.7476 5.52919 16.3252 5.44591C12.9028 5.36263 10.0942 6.2679 7.89949 8.16171C5.77185 10.0572 4.66885 12.6154 4.59047 15.8365C4.51372 18.9905 5.49181 21.5658 7.52474 23.5625Z" fill="#FFC42F"/>
  <path d="M25.1667 31H7.66675C8.08341 28.9167 10.0834 24.75 16.4167 24.75C22.7501 24.75 25.0279 28.9167 25.1667 31Z" fill="#FFC42F"/>
  <path d="M11.8848 12.2158L11.8848 15.0359" stroke="black" stroke-width="2" stroke-linecap="round"/>
  <path d="M21.377 12.7798L18.6529 13.5097" stroke="black" stroke-width="2" stroke-linecap="round"/>
  <path d="M12.1667 19.2661C14.4228 20.6761 19.217 20.3941 21.4731 17.292" stroke="black" stroke-width="2" stroke-linecap="round"/>
  <path d="M24.5 6L25.4453 8.55468L28 9.5L25.4453 10.4453L24.5 13L23.5547 10.4453L21 9.5L23.5547 8.55468L24.5 6Z" fill="white" stroke="black" stroke-width="0.5" stroke-linejoin="round"/>
</svg>