<svg xmlns="http://www.w3.org/2000/svg" width="32" height="32" viewBox="0 0 32 32" fill="none">
  <rect x="1" y="1" width="30" height="30" rx="8" fill="#191817"/>
  <rect x="0.5" y="0.5" width="31" height="31" rx="8.5" stroke="#434343" stroke-opacity="0.8"/>
  <path d="M7.52474 23.5625C9.62477 25.5608 12.386 26.6016 15.8084 26.6849C19.2308 26.7682 22.0058 25.8621 24.1334 23.9666C26.2611 22.0712 27.3632 19.5465 27.44 16.3925C27.5184 13.1714 26.5411 10.5625 24.5082 8.56585C22.4752 6.56917 19.7476 5.52919 16.3252 5.44591C12.9028 5.36263 10.0942 6.2679 7.89949 8.16171C5.77185 10.0572 4.66885 12.6154 4.59047 15.8365C4.51372 18.9905 5.49181 21.5658 7.52474 23.5625Z" fill="#FFC42F"/>
  <path d="M11.9165 13.9305L12.5087 16.5418" stroke="black" stroke-width="2" stroke-linecap="round"/>
  <path d="M18.5657 18.2641L15.9544 18.8563" stroke="black" stroke-width="2" stroke-linecap="round"/>
  <path d="M19.4448 12.2232L20.037 14.8345" stroke="black" stroke-width="2" stroke-linecap="round"/>
  <path d="M25.1667 31H7.66675C8.08341 28.9167 10.0834 24.75 16.4167 24.75C22.7501 24.75 25.0279 28.9167 25.1667 31Z" fill="#FFC42F"/>
  <path d="M24.0864 11.8869C24.0472 11.5748 24.0707 11.3017 24.1572 11.0676C24.2515 10.8335 24.3811 10.6229 24.5462 10.4356C24.7191 10.2484 24.9077 10.0767 25.112 9.92068C25.3242 9.76463 25.5206 9.61248 25.7014 9.46424C25.89 9.31599 26.0432 9.16385 26.1611 9.0078C26.279 8.85176 26.3379 8.6801 26.3379 8.49285C26.3379 8.25878 26.279 8.05982 26.1611 7.89597C26.0432 7.73212 25.8703 7.60728 25.6424 7.52146C25.4224 7.43563 25.1552 7.39272 24.8409 7.39272C24.4794 7.39272 24.1493 7.47074 23.8507 7.62679C23.5521 7.78284 23.2574 8.013 22.9666 8.3173L22 7.42783C22.3772 6.9987 22.8212 6.6554 23.332 6.39792C23.8507 6.13264 24.4204 6 25.0413 6C25.6149 6 26.1218 6.08583 26.5619 6.25748C27.0098 6.42913 27.3595 6.69051 27.611 7.04161C27.8703 7.38492 28 7.81795 28 8.3407C28 8.62939 27.9371 8.88297 27.8114 9.10143C27.6935 9.31209 27.5363 9.50325 27.3399 9.6749C27.1513 9.83875 26.9509 9.9987 26.7387 10.1547C26.5265 10.303 26.3301 10.459 26.1493 10.6229C25.9686 10.7867 25.8271 10.9701 25.725 11.173C25.6228 11.3758 25.5835 11.6138 25.6071 11.8869H24.0864ZM24.8527 15C24.554 15 24.3065 14.9025 24.11 14.7074C23.9136 14.5124 23.8153 14.2666 23.8153 13.9701C23.8153 13.6658 23.9136 13.4161 24.11 13.2211C24.3065 13.026 24.554 12.9285 24.8527 12.9285C25.1513 12.9285 25.3988 13.026 25.5953 13.2211C25.7917 13.4161 25.89 13.6658 25.89 13.9701C25.89 14.2666 25.7917 14.5124 25.5953 14.7074C25.3988 14.9025 25.1513 15 24.8527 15Z" fill="white" stroke="black" stroke-width="0.5" stroke-linejoin="round"/>
</svg>