<svg width="32" height="32" viewBox="0 0 32 32" fill="none" xmlns="http://www.w3.org/2000/svg">
<rect x="1" y="1" width="30" height="30" rx="8" fill="#191817"/>
<rect x="0.5" y="0.5" width="31" height="31" rx="8.5" stroke="#434343" stroke-opacity="0.8"/>
<path d="M7.52474 23.5625C9.62477 25.5608 12.386 26.6016 15.8084 26.6849C19.2308 26.7682 22.0058 25.8621 24.1334 23.9666C26.2611 22.0712 27.3632 19.5465 27.44 16.3925C27.5184 13.1714 26.5411 10.5625 24.5082 8.56585C22.4752 6.56917 19.7476 5.52919 16.3252 5.44591C12.9028 5.36263 10.0942 6.2679 7.89949 8.16171C5.77185 10.0572 4.66885 12.6154 4.59047 15.8365C4.51372 18.9905 5.49181 21.5658 7.52474 23.5625Z" fill="#FFC42F"/>
<rect x="14.9131" y="16.5186" width="2.11393" height="4.22786" rx="1.05696" transform="rotate(15 14.9131 16.5186)" fill="black"/>
<path d="M23.1694 15.2072L20.1887 15.2072" stroke="black" stroke-width="2" stroke-linecap="round"/>
<path d="M11.1997 12L13.7811 13.4904" stroke="black" stroke-width="2" stroke-linecap="round"/>
<path d="M25.1667 31H7.66675C8.08341 28.9167 10.0834 24.75 16.4167 24.75C22.7501 24.75 25.0279 28.9167 25.1667 31Z" fill="#FFC42F"/>
<path d="M20.8176 5.5H22.9476L22.6076 10.35H21.1576L20.8176 5.5ZM21.8876 13.1C21.5476 13.1 21.2709 13.0033 21.0576 12.81C20.8509 12.6167 20.7476 12.3633 20.7476 12.05C20.7476 11.73 20.8509 11.4733 21.0576 11.28C21.2709 11.0867 21.5476 10.99 21.8876 10.99C22.2276 10.99 22.5009 11.0867 22.7076 11.28C22.9142 11.4733 23.0176 11.73 23.0176 12.05C23.0176 12.3633 22.9142 12.6167 22.7076 12.81C22.5009 13.0033 22.2276 13.1 21.8876 13.1ZM24.05 5.5H26.18L25.84 10.35H24.39L24.05 5.5ZM25.12 13.1C24.78 13.1 24.5033 13.0033 24.29 12.81C24.0833 12.6167 23.98 12.3633 23.98 12.05C23.98 11.73 24.0833 11.4733 24.29 11.28C24.5033 11.0867 24.78 10.99 25.12 10.99C25.46 10.99 25.7333 11.0867 25.94 11.28C26.1467 11.4733 26.25 11.73 26.25 12.05C26.25 12.3633 26.1467 12.6167 25.94 12.81C25.7333 13.0033 25.46 13.1 25.12 13.1Z" fill="white"/>
<path d="M20.8176 5.5V5.25C20.7482 5.25 20.682 5.2788 20.6347 5.32952C20.5874 5.38023 20.5633 5.44831 20.5682 5.51748L20.8176 5.5ZM22.9476 5.5L23.197 5.51748C23.2018 5.44831 23.1777 5.38023 23.1304 5.32952C23.0831 5.2788 23.0169 5.25 22.9476 5.25V5.5ZM22.6076 10.35V10.6C22.7389 10.6 22.8478 10.4984 22.857 10.3675L22.6076 10.35ZM21.1576 10.35L20.9082 10.3675C20.9174 10.4984 21.0263 10.6 21.1576 10.6V10.35ZM21.0576 12.81L20.8868 12.9926L20.8897 12.9952L21.0576 12.81ZM21.0576 11.28L20.8897 11.0947L20.8868 11.0974L21.0576 11.28ZM22.7076 11.28L22.8784 11.0974L22.7076 11.28ZM22.7076 12.81L22.8784 12.9926L22.7076 12.81ZM20.8176 5.5V5.75H22.9476V5.5V5.25H20.8176V5.5ZM22.9476 5.5L22.6982 5.48252L22.3582 10.3325L22.6076 10.35L22.857 10.3675L23.197 5.51748L22.9476 5.5ZM22.6076 10.35V10.1H21.1576V10.35V10.6H22.6076V10.35ZM21.1576 10.35L21.407 10.3325L21.067 5.48252L20.8176 5.5L20.5682 5.51748L20.9082 10.3675L21.1576 10.35ZM21.8876 13.1V12.85C21.5977 12.85 21.3847 12.7691 21.2255 12.6248L21.0576 12.81L20.8897 12.9952C21.1571 13.2376 21.4974 13.35 21.8876 13.35V13.1ZM21.0576 12.81L21.2284 12.6274C21.0779 12.4867 20.9976 12.3024 20.9976 12.05H20.7476H20.4976C20.4976 12.4243 20.6239 12.7466 20.8868 12.9926L21.0576 12.81ZM20.7476 12.05H20.9976C20.9976 11.7892 21.0791 11.6022 21.2284 11.4626L21.0576 11.28L20.8868 11.0974C20.6227 11.3444 20.4976 11.6708 20.4976 12.05H20.7476ZM21.0576 11.28L21.2255 11.4652C21.3847 11.3209 21.5977 11.24 21.8876 11.24V10.99V10.74C21.4974 10.74 21.1571 10.8524 20.8897 11.0948L21.0576 11.28ZM21.8876 10.99V11.24C22.1777 11.24 22.3855 11.321 22.5368 11.4626L22.7076 11.28L22.8784 11.0974C22.6164 10.8523 22.2775 10.74 21.8876 10.74V10.99ZM22.7076 11.28L22.5368 11.4626C22.6861 11.6022 22.7676 11.7892 22.7676 12.05H23.0176H23.2676C23.2676 11.6708 23.1424 11.3444 22.8784 11.0974L22.7076 11.28ZM23.0176 12.05H22.7676C22.7676 12.3024 22.6872 12.4867 22.5368 12.6274L22.7076 12.81L22.8784 12.9926C23.1413 12.7466 23.2676 12.4243 23.2676 12.05H23.0176ZM22.7076 12.81L22.5368 12.6274C22.3855 12.769 22.1777 12.85 21.8876 12.85V13.1V13.35C22.2775 13.35 22.6164 13.2377 22.8784 12.9926L22.7076 12.81ZM24.05 5.5V5.25C23.9807 5.25 23.9144 5.2788 23.8671 5.32952C23.8199 5.38023 23.7958 5.44831 23.8006 5.51748L24.05 5.5ZM26.18 5.5L26.4294 5.51748C26.4342 5.44831 26.4101 5.38023 26.3629 5.32952C26.3156 5.2788 26.2493 5.25 26.18 5.25V5.5ZM25.84 10.35V10.6C25.9713 10.6 26.0802 10.4984 26.0894 10.3675L25.84 10.35ZM24.39 10.35L24.1406 10.3675C24.1498 10.4984 24.2587 10.6 24.39 10.6V10.35ZM24.29 12.81L24.1192 12.9926L24.1221 12.9952L24.29 12.81ZM24.29 11.28L24.1221 11.0947L24.1192 11.0974L24.29 11.28ZM25.94 11.28L26.1108 11.0974L25.94 11.28ZM25.94 12.81L26.1108 12.9926L25.94 12.81ZM24.05 5.5V5.75H26.18V5.5V5.25H24.05V5.5ZM26.18 5.5L25.9306 5.48252L25.5906 10.3325L25.84 10.35L26.0894 10.3675L26.4294 5.51748L26.18 5.5ZM25.84 10.35V10.1H24.39V10.35V10.6H25.84V10.35ZM24.39 10.35L24.6394 10.3325L24.2994 5.48252L24.05 5.5L23.8006 5.51748L24.1406 10.3675L24.39 10.35ZM25.12 13.1V12.85C24.8302 12.85 24.6171 12.7691 24.4579 12.6248L24.29 12.81L24.1221 12.9952C24.3896 13.2376 24.7298 13.35 25.12 13.35V13.1ZM24.29 12.81L24.4608 12.6274C24.3104 12.4867 24.23 12.3024 24.23 12.05H23.98H23.73C23.73 12.4243 23.8563 12.7466 24.1192 12.9926L24.29 12.81ZM23.98 12.05H24.23C24.23 11.7892 24.3115 11.6022 24.4608 11.4626L24.29 11.28L24.1192 11.0974C23.8552 11.3444 23.73 11.6708 23.73 12.05H23.98ZM24.29 11.28L24.4579 11.4652C24.6171 11.3209 24.8302 11.24 25.12 11.24V10.99V10.74C24.7298 10.74 24.3896 10.8524 24.1221 11.0948L24.29 11.28ZM25.12 10.99V11.24C25.4101 11.24 25.6179 11.321 25.7692 11.4626L25.94 11.28L26.1108 11.0974C25.8488 10.8523 25.5099 10.74 25.12 10.74V10.99ZM25.94 11.28L25.7692 11.4626C25.9185 11.6022 26 11.7892 26 12.05H26.25H26.5C26.5 11.6708 26.3748 11.3444 26.1108 11.0974L25.94 11.28ZM26.25 12.05H26C26 12.3024 25.9196 12.4867 25.7692 12.6274L25.94 12.81L26.1108 12.9926C26.3737 12.7466 26.5 12.4243 26.5 12.05H26.25ZM25.94 12.81L25.7692 12.6274C25.6179 12.769 25.4101 12.85 25.12 12.85V13.1V13.35C25.5099 13.35 25.8488 13.2377 26.1108 12.9926L25.94 12.81Z" fill="black"/>
</svg>
