<svg width="39" height="50" viewBox="0 0 39 50" fill="none" xmlns="http://www.w3.org/2000/svg">
<path d="M0 15.6C0 6.98436 6.98436 0 15.6 0H23.4C32.0156 0 39 6.98436 39 15.6V33.8C39 42.4156 32.0156 49.4 23.4 49.4H15.6C6.98436 49.4 0 42.4156 0 33.8V15.6Z" fill="url(#paint0_radial_591_9063)"/>
<path d="M3.29321 16.8132C3.29321 9.34632 9.19111 3.29321 16.4665 3.29321H23.0532C30.3286 3.29321 36.2265 9.34632 36.2265 16.8132V32.5865C36.2265 40.0534 30.3286 46.1065 23.0532 46.1065H16.4665C9.19111 46.1065 3.29321 40.0534 3.29321 32.5865V16.8132Z" fill="url(#paint1_radial_591_9063)"/>
<defs>
<radialGradient id="paint0_radial_591_9063" cx="0" cy="0" r="1" gradientUnits="userSpaceOnUse" gradientTransform="translate(19.5 24.7) rotate(90) scale(24.7 19.5)">
<stop stop-color="#FFEF43"/>
<stop offset="1" stop-color="#FFC42F"/>
</radialGradient>
<radialGradient id="paint1_radial_591_9063" cx="0" cy="0" r="1" gradientUnits="userSpaceOnUse" gradientTransform="translate(19.7599 24.6999) rotate(90) scale(21.4067 16.4667)">
<stop stop-color="#FFC42F"/>
<stop offset="1" stop-color="#FFEF43"/>
</radialGradient>
</defs>
</svg>
