<svg width="104" height="52" viewBox="0 0 104 52" fill="none" xmlns="http://www.w3.org/2000/svg">
<g filter="url(#filter0_d_1444_19667)">
<path d="M50.5555 36.8069C45.6444 39.2304 39.1746 43.9818 29.7303 45.5491C16.0353 47.8216 11.7704 40.7246 9.75564 37.5901C11.5186 40.0716 17.716 45.4513 28.8982 43.884C40.0802 42.3168 45.2666 39.1577 50.5555 36.8069ZM21.9793 9.70239C23.9842 9.70241 25.7096 10.0054 27.1551 10.6116C28.6004 11.1944 29.7781 11.9989 30.6873 13.0247C31.6196 14.0503 32.3078 15.2273 32.7508 16.5559C33.1937 17.8615 33.4148 19.2374 33.4148 20.6829C33.4148 22.4314 33.1 24.1922 32.4705 25.9641C31.8643 27.7125 30.9779 29.3206 29.8123 30.7893C28.6699 32.2348 27.2713 33.4014 25.616 34.2874C23.9841 35.1499 22.1539 35.5813 20.1258 35.5813C19.2166 35.5813 18.2956 35.4757 17.3631 35.2659C16.4306 35.0561 15.5678 34.7302 14.7752 34.2874C14.0058 33.8211 13.3761 33.2259 12.8865 32.5032C12.4203 31.7573 12.1874 30.8715 12.1873 29.8459V29.5305C12.1873 29.4141 12.1992 29.2745 12.2224 29.1116C12.2924 28.4821 12.4434 27.7004 12.6765 26.7678C12.933 25.8353 13.2242 24.8443 13.5506 23.7952C13.877 22.7461 14.1918 21.7086 14.4949 20.6829C14.8213 19.657 15.0898 18.7243 15.2996 17.885C15.5094 17.0225 15.614 16.3344 15.614 15.8215C15.614 15.2625 15.4628 14.9828 15.1599 14.9827C14.3353 14.936 12.253 15.7689 10.5877 18.2668C8.9226 20.7644 8.50647 21.1811 7.2576 25.344C6.00862 29.5073 8.09061 34.9202 8.09061 34.9202C6.43922 33.1311 5.92646 29.2163 6.00857 26.7678C6.4961 21.6571 8.20682 17.9321 11.0047 15.0178C13.8024 12.1037 14.8216 11.4858 16.3836 10.7864C17.9689 10.0636 19.8344 9.70239 21.9793 9.70239ZM44.9441 17.6057C46.6924 17.6058 48.1259 17.9671 49.2449 18.6897C50.3873 19.3891 51.2272 20.3218 51.7635 21.4875C52.3229 22.6532 52.6023 23.9009 52.6023 25.2297C52.6023 26.4419 52.3812 27.6661 51.9383 28.9016C51.4953 30.1139 50.83 31.2323 49.9441 32.2581C49.0816 33.2605 48.0213 34.065 46.7625 34.6711C45.5035 35.2773 44.0576 35.5803 42.4256 35.5803C40.6772 35.5803 39.232 35.2308 38.0896 34.5315C36.9472 33.8321 36.0955 32.9112 35.5359 31.7688C34.9998 30.6032 34.7322 29.3673 34.7322 28.0618C34.7322 26.8262 34.9533 25.5903 35.3963 24.3547C35.8626 23.1191 36.5268 21.9998 37.3894 20.9973C38.2753 19.9715 39.3483 19.1562 40.6072 18.55C41.8662 17.9206 43.3121 17.6057 44.9441 17.6057ZM90.3719 17.675C91.0246 17.675 91.6426 17.8034 92.2254 18.0598C92.8082 18.3162 93.205 18.7477 93.4148 19.3538L93.4842 19.5637C93.2044 20.1932 92.9251 20.9512 92.6453 21.8372C92.3655 22.7231 92.1089 23.6558 91.8758 24.635C91.6427 25.5907 91.4561 26.5347 91.3162 27.467C91.1763 28.3762 91.1063 29.1808 91.1062 29.8801C91.1062 30.6495 91.1881 31.1864 91.3513 31.4895C91.5145 31.7691 91.713 31.9084 91.9461 31.9084C95.1024 30.7559 96.7675 27.0088 97.3474 19.3538C97.3474 27.8418 94.8923 31.384 93.0203 33.2542C92.433 33.8409 91.3863 34.5551 90.617 34.9514C89.8476 35.3244 89.0778 35.511 88.3084 35.511C87.4925 35.5109 86.7817 35.2425 86.1756 34.7063C85.5694 34.1701 85.2664 33.2956 85.2664 32.0833V31.7336C85.2664 31.6172 85.2782 31.5005 85.3015 31.384C84.6022 32.7826 83.8094 33.8202 82.9236 34.4963C82.0611 35.1491 81.1864 35.4758 80.3006 35.4758C79.4846 35.4758 78.7147 35.1965 77.992 34.637C77.2692 34.0541 76.6869 33.2023 76.2439 32.0833C75.801 30.9642 75.5789 29.6119 75.5789 28.0266C75.5789 26.3948 75.801 24.9377 76.2439 23.6555C76.7102 22.3733 77.3163 21.2895 78.0623 20.4036C78.8083 19.5176 79.6246 18.8524 80.5105 18.4094C81.3963 17.9433 82.2593 17.7102 83.0984 17.7102C84.0307 17.7103 84.8701 18.0016 85.616 18.5842C86.3621 19.1438 86.8753 20.0419 87.1551 21.2776C87.225 20.8813 87.2714 20.5199 87.2947 20.1936C87.3413 19.8672 87.364 19.6451 87.364 19.5286C87.3875 18.8994 87.7025 18.4332 88.3084 18.1301C88.9378 17.8271 89.6259 17.6751 90.3719 17.675ZM60.1062 10.8557C60.9221 10.8557 61.6448 11.1707 62.2742 11.8C62.927 12.4062 63.2537 13.4327 63.2537 14.8782C63.2537 15.6475 63.1599 16.5686 62.9734 17.6409C62.7869 18.6898 62.5658 19.8204 62.3094 21.0325C62.0529 22.2215 61.7844 23.399 61.5047 24.5647C61.2482 25.7304 61.0271 26.8033 60.8406 27.7825C60.6541 28.7615 60.5603 29.5661 60.5603 30.1956C60.5604 30.848 60.6542 31.3024 60.8406 31.5588C61.0271 31.792 61.2373 31.9084 61.4705 31.9084C61.7268 31.9083 61.9719 31.8156 62.2049 31.6292C62.4379 31.4194 62.589 31.2327 62.659 31.0696L62.9392 31.1399C62.9159 31.9788 62.6709 32.7246 62.2049 33.3772C61.7619 34.03 61.1904 34.5432 60.491 34.9163C59.8149 35.2893 59.1033 35.4758 58.3572 35.4758C57.7279 35.4758 57.1097 35.3248 56.5037 35.0217C55.9209 34.6953 55.4431 34.182 55.0701 33.4827C54.6971 32.7832 54.5105 31.8851 54.5105 30.7893C54.5106 29.8102 54.6389 28.6679 54.8953 27.3625C55.1751 26.0336 55.4781 24.6578 55.8045 23.2356C56.1541 21.8136 56.4572 20.4266 56.7137 19.0745C56.9701 17.7222 57.0866 16.5211 57.0633 15.4719C57.0632 14.4696 56.9468 13.7587 56.7137 13.3391L56.6785 13.2336C56.935 12.4877 57.3901 11.9052 58.0428 11.4856C58.6956 11.0659 59.3835 10.8557 60.1062 10.8557ZM70.7957 10.8557C71.6116 10.8557 72.3342 11.1707 72.9637 11.8C73.6165 12.4062 73.9431 13.4327 73.9431 14.8782C73.9431 15.6475 73.8493 16.5686 73.6629 17.6409C73.4764 18.6898 73.2552 19.8204 72.9988 21.0325C72.7424 22.2215 72.4739 23.399 72.1941 24.5647C71.9377 25.7304 71.7166 26.8033 71.5301 27.7825C71.3436 28.7615 71.2508 29.5661 71.2508 30.1956C71.2508 30.848 71.3437 31.3024 71.5301 31.5588C71.7166 31.792 71.9268 31.9084 72.1599 31.9084C72.4163 31.9084 72.6613 31.8156 72.8943 31.6292C73.1273 31.4194 73.2785 31.2327 73.3484 31.0696L73.6287 31.1399C73.6053 31.9788 73.3603 32.7246 72.8943 33.3772C72.4514 34.03 71.8798 34.5432 71.1805 34.9163C70.5043 35.2893 69.7927 35.4758 69.0467 35.4758C68.4173 35.4758 67.7992 35.3247 67.1931 35.0217C66.6104 34.6953 66.1325 34.182 65.7596 33.4827C65.3865 32.7832 65.2 31.8851 65.2 30.7893C65.2 29.8102 65.3283 28.6679 65.5847 27.3625C65.8645 26.0336 66.1675 24.6578 66.4939 23.2356C66.8436 21.8136 67.1467 20.4266 67.4031 19.0745C67.6596 17.7222 67.776 16.5211 67.7527 15.4719C67.7527 14.4696 67.6362 13.7587 67.4031 13.3391L67.3689 13.2336C67.6254 12.4879 68.0796 11.9051 68.7322 11.4856C69.385 11.0659 70.0729 10.8557 70.7957 10.8557ZM43.7898 20.5784C43.1837 20.5784 42.6586 20.9042 42.2156 21.5569C41.7959 22.2097 41.4811 23.0378 41.2713 24.0403C41.0615 25.0427 40.9568 26.0802 40.9568 27.1526C40.9568 28.0852 41.0387 28.9715 41.2019 29.8108C41.3884 30.6266 41.656 31.303 42.0056 31.8391C42.3554 32.352 42.8104 32.6086 43.3699 32.6086C43.9994 32.6086 44.5245 32.2819 44.9441 31.6292C45.3637 30.9764 45.6777 30.1482 45.8875 29.1458C46.0973 28.12 46.2029 27.0825 46.2029 26.0334C46.2029 25.1009 46.1091 24.2264 45.9226 23.4104C45.7594 22.5713 45.5028 21.8949 45.1531 21.3821C44.8035 20.8462 44.3491 20.5784 43.7898 20.5784ZM84.3924 21.2073C83.8095 21.2073 83.2607 21.5221 82.7478 22.1516C82.2583 22.7578 81.8506 23.5277 81.5242 24.4602C81.2212 25.3927 81.0701 26.3256 81.0701 27.2581C81.0701 28.54 81.2093 29.4958 81.489 30.1252C81.7921 30.7546 82.1653 31.0695 82.6082 31.0696C83.2143 31.0696 83.8787 30.5333 84.6013 29.4612C85.3474 28.3654 85.989 26.803 86.5252 24.7747C86.5718 24.5648 86.6182 24.3664 86.6648 24.1799C86.7114 23.9701 86.747 23.7717 86.7703 23.5852C86.3973 22.7227 86.0005 22.1165 85.5808 21.7668C85.1847 21.3941 84.7885 21.2074 84.3924 21.2073ZM20.1951 13.9338C20.3116 14.3767 20.3936 14.831 20.4402 15.2971C20.5102 15.7634 20.5457 16.2421 20.5457 16.7317C20.5457 17.804 20.4401 18.8999 20.2303 20.0188C20.0438 21.1377 19.8226 22.2218 19.5662 23.2708C19.3331 24.3199 19.111 25.299 18.9012 26.2083C18.7147 27.1174 18.6219 27.9219 18.6219 28.6213C18.6219 29.3441 18.7738 29.9155 19.0769 30.3352C19.3801 30.7547 19.928 30.9641 20.7205 30.9641C21.6529 30.964 22.4921 30.6965 23.2381 30.1604C24.0074 29.6009 24.6717 28.8664 25.2312 27.9573C25.7908 27.048 26.2221 26.0452 26.5252 24.9495C26.8283 23.8304 26.9803 22.7111 26.9803 21.592C26.9802 20.2632 26.7473 19.0155 26.281 17.8499C25.8381 16.6843 25.1145 15.7405 24.1121 15.0178C23.1096 14.2951 21.8037 13.9338 20.1951 13.9338ZM90.0984 5.99829C96.0967 5.72888 97.2154 12.2434 97.2156 15.7405C94.3905 4.30895 85.8869 7.13043 77.3289 13.5588C80.4341 11.1539 84.2669 6.26037 90.0984 5.99829Z" fill="#FFEF43"/>
</g>
<defs>
<filter id="filter0_d_1444_19667" x="0.000244141" y="-0.0098114" width="103.347" height="51.9998" filterUnits="userSpaceOnUse" color-interpolation-filters="sRGB">
<feFlood flood-opacity="0" result="BackgroundImageFix"/>
<feColorMatrix in="SourceAlpha" type="matrix" values="0 0 0 0 0 0 0 0 0 0 0 0 0 0 0 0 0 0 127 0" result="hardAlpha"/>
<feOffset/>
<feGaussianBlur stdDeviation="3"/>
<feComposite in2="hardAlpha" operator="out"/>
<feColorMatrix type="matrix" values="0 0 0 0 1 0 0 0 0 0.768627 0 0 0 0 0.184314 0 0 0 1 0"/>
<feBlend mode="normal" in2="BackgroundImageFix" result="effect1_dropShadow_1444_19667"/>
<feBlend mode="normal" in="SourceGraphic" in2="effect1_dropShadow_1444_19667" result="shape"/>
</filter>
</defs>
</svg>
