<svg width="101" height="25" viewBox="0 0 101 25" fill="none" xmlns="http://www.w3.org/2000/svg">
<mask id="path-1-inside-1_1259_22867" fill="white">
<path d="M10.88 24H0.8V1.5H10.88C12.9 1.5 14.59 1.71 15.95 2.13C17.31 2.53 18.4 3.18 19.22 4.08C20.04 4.98 20.62 6.14 20.96 7.56C21.32 8.98 21.5 10.7 21.5 12.72C21.5 14.74 21.32 16.47 20.96 17.91C20.62 19.33 20.04 20.49 19.22 21.39C18.4 22.29 17.31 22.95 15.95 23.37C14.59 23.79 12.9 24 10.88 24ZM11 7.26H8V18.24H11C12 18.24 12.71 18.13 13.13 17.91C13.57 17.67 13.79 17.14 13.79 16.32V9.18C13.79 8.36 13.57 7.84 13.13 7.62C12.71 7.38 12 7.26 11 7.26ZM22.9524 12.78C22.9524 10.72 23.1224 8.95 23.4624 7.47C23.8224 5.97 24.4124 4.74 25.2324 3.78C26.0724 2.82 27.1724 2.11 28.5324 1.65C29.8924 1.19 31.5724 0.96 33.5724 0.96C35.5924 0.96 37.2724 1.19 38.6124 1.65C39.9724 2.11 41.0624 2.82 41.8824 3.78C42.7224 4.74 43.3124 5.97 43.6524 7.47C44.0124 8.95 44.1924 10.72 44.1924 12.78C44.1924 14.74 44.0324 16.46 43.7124 17.94C43.3924 19.4 42.8224 20.62 42.0024 21.6C41.2024 22.58 40.1124 23.32 38.7324 23.82C37.3724 24.3 35.6524 24.54 33.5724 24.54C31.4924 24.54 29.7624 24.3 28.3824 23.82C27.0224 23.32 25.9324 22.58 25.1124 21.6C24.3124 20.62 23.7524 19.4 23.4324 17.94C23.1124 16.46 22.9524 14.74 22.9524 12.78ZM30.6924 9.03V18.39H33.6924C34.6924 18.39 35.4024 18.28 35.8224 18.06C36.2624 17.82 36.4824 17.29 36.4824 16.47V7.11H33.4524C32.4924 7.11 31.7924 7.23 31.3524 7.47C30.9124 7.69 30.6924 8.21 30.6924 9.03ZM61.1082 18.24V24H46.7082V1.5H53.9082V18.24H61.1082ZM77.4852 18.24V24H63.0852V1.5H70.2852V18.24H77.4852ZM85.6421 20.43L84.8321 24H77.2421L83.0621 1.5H94.1921L100.012 24H92.4221L91.5821 20.43H85.6421ZM88.8221 8.4H88.4321L86.9621 14.7H90.2621L88.8221 8.4Z"/>
</mask>
<g filter="url(#filter0_i_1259_22867)">
<path d="M10.88 24H0.8V1.5H10.88C12.9 1.5 14.59 1.71 15.95 2.13C17.31 2.53 18.4 3.18 19.22 4.08C20.04 4.98 20.62 6.14 20.96 7.56C21.32 8.98 21.5 10.7 21.5 12.72C21.5 14.74 21.32 16.47 20.96 17.91C20.62 19.33 20.04 20.49 19.22 21.39C18.4 22.29 17.31 22.95 15.95 23.37C14.59 23.79 12.9 24 10.88 24ZM11 7.26H8V18.24H11C12 18.24 12.71 18.13 13.13 17.91C13.57 17.67 13.79 17.14 13.79 16.32V9.18C13.79 8.36 13.57 7.84 13.13 7.62C12.71 7.38 12 7.26 11 7.26ZM22.9524 12.78C22.9524 10.72 23.1224 8.95 23.4624 7.47C23.8224 5.97 24.4124 4.74 25.2324 3.78C26.0724 2.82 27.1724 2.11 28.5324 1.65C29.8924 1.19 31.5724 0.96 33.5724 0.96C35.5924 0.96 37.2724 1.19 38.6124 1.65C39.9724 2.11 41.0624 2.82 41.8824 3.78C42.7224 4.74 43.3124 5.97 43.6524 7.47C44.0124 8.95 44.1924 10.72 44.1924 12.78C44.1924 14.74 44.0324 16.46 43.7124 17.94C43.3924 19.4 42.8224 20.62 42.0024 21.6C41.2024 22.58 40.1124 23.32 38.7324 23.82C37.3724 24.3 35.6524 24.54 33.5724 24.54C31.4924 24.54 29.7624 24.3 28.3824 23.82C27.0224 23.32 25.9324 22.58 25.1124 21.6C24.3124 20.62 23.7524 19.4 23.4324 17.94C23.1124 16.46 22.9524 14.74 22.9524 12.78ZM30.6924 9.03V18.39H33.6924C34.6924 18.39 35.4024 18.28 35.8224 18.06C36.2624 17.82 36.4824 17.29 36.4824 16.47V7.11H33.4524C32.4924 7.11 31.7924 7.23 31.3524 7.47C30.9124 7.69 30.6924 8.21 30.6924 9.03ZM61.1082 18.24V24H46.7082V1.5H53.9082V18.24H61.1082ZM77.4852 18.24V24H63.0852V1.5H70.2852V18.24H77.4852ZM85.6421 20.43L84.8321 24H77.2421L83.0621 1.5H94.1921L100.012 24H92.4221L91.5821 20.43H85.6421ZM88.8221 8.4H88.4321L86.9621 14.7H90.2621L88.8221 8.4Z" fill="url(#paint0_linear_1259_22867)"/>
</g>
<path d="M0.8 24H-0.2V25H0.8V24ZM0.8 1.5V0.499998H-0.2V1.5H0.8ZM15.95 2.13L15.6549 3.08556L15.6678 3.08936L15.95 2.13ZM20.96 7.56L19.9874 7.79287L19.9907 7.80575L20.96 7.56ZM20.96 17.91L19.9898 17.6675L19.9875 17.6771L20.96 17.91ZM19.22 21.39L18.4808 20.7165L19.22 21.39ZM15.95 23.37L15.6549 22.4145L15.95 23.37ZM8 7.26V6.26H7V7.26H8ZM8 18.24H7V19.24H8V18.24ZM13.13 17.91L13.594 18.7958L13.6015 18.7919L13.6089 18.7879L13.13 17.91ZM13.13 7.62L12.6339 8.48824L12.658 8.50201L12.6828 8.51443L13.13 7.62ZM10.88 24V23H0.8V24V25H10.88V24ZM0.8 24H1.8V1.5H0.8H-0.2V24H0.8ZM0.8 1.5V2.5H10.88V1.5V0.499998H0.8V1.5ZM10.88 1.5V2.5C12.8383 2.5 14.4213 2.70449 15.6549 3.08547L15.95 2.13L16.2451 1.17452C14.7587 0.715509 12.9617 0.499998 10.88 0.499998V1.5ZM15.95 2.13L15.6678 3.08936C16.8815 3.44632 17.8032 4.00974 18.4808 4.75349L19.22 4.08L19.9592 3.40651C18.9968 2.35026 17.7385 1.61368 16.2322 1.17063L15.95 2.13ZM19.22 4.08L18.4808 4.75349C19.1664 5.50601 19.679 6.50444 19.9875 7.79285L20.96 7.56L21.9325 7.32714C21.561 5.77556 20.9136 4.45399 19.9592 3.40651L19.22 4.08ZM20.96 7.56L19.9907 7.80575C20.3243 9.1216 20.5 10.754 20.5 12.72H21.5H22.5C22.5 10.646 22.3157 8.8384 21.9293 7.31425L20.96 7.56ZM21.5 12.72H20.5C20.5 14.6854 20.3244 16.3294 19.9899 17.6675L20.96 17.91L21.9301 18.1525C22.3156 16.6106 22.5 14.7946 22.5 12.72H21.5ZM20.96 17.91L19.9875 17.6771C19.679 18.9656 19.1664 19.964 18.4808 20.7165L19.22 21.39L19.9592 22.0635C20.9136 21.016 21.561 19.6944 21.9325 18.1429L20.96 17.91ZM19.22 21.39L18.4808 20.7165C17.8 21.4637 16.8735 22.0382 15.6549 22.4145L15.95 23.37L16.2451 24.3255C17.7465 23.8618 19 23.1163 19.9592 22.0635L19.22 21.39ZM15.95 23.37L15.6549 22.4145C14.4213 22.7955 12.8383 23 10.88 23V24V25C12.9617 25 14.7587 24.7845 16.2451 24.3255L15.95 23.37ZM11 7.26V6.26H8V7.26V8.26H11V7.26ZM8 7.26H7V18.24H8H9V7.26H8ZM8 18.24V19.24H11V18.24V17.24H8V18.24ZM11 18.24V19.24C12.0202 19.24 12.9434 19.1366 13.594 18.7958L13.13 17.91L12.666 17.0242C12.4766 17.1234 11.9798 17.24 11 17.24V18.24ZM13.13 17.91L13.6089 18.7879C14.54 18.28 14.79 17.2597 14.79 16.32H13.79H12.79C12.79 16.6505 12.7443 16.8459 12.7014 16.9491C12.6815 16.997 12.6651 17.0183 12.6595 17.0248C12.655 17.0301 12.6534 17.0309 12.6511 17.0321L13.13 17.91ZM13.79 16.32H14.79V9.18H13.79H12.79V16.32H13.79ZM13.79 9.18H14.79C14.79 8.25038 14.5435 7.20872 13.5772 6.72557L13.13 7.62L12.6828 8.51443C12.6587 8.50236 12.6723 8.48959 12.704 8.56464C12.7439 8.65884 12.79 8.84831 12.79 9.18H13.79ZM13.13 7.62L13.6261 6.75176C12.964 6.37337 12.0251 6.26 11 6.26V7.26V8.26C11.9749 8.26 12.456 8.38663 12.6339 8.48824L13.13 7.62ZM23.4624 7.47L22.49 7.23662L22.4878 7.2461L23.4624 7.47ZM25.2324 3.78L24.4798 3.12145L24.472 3.13051L25.2324 3.78ZM28.5324 1.65L28.212 0.702717V0.702717L28.5324 1.65ZM38.6124 1.65L38.2877 2.59583L38.292 2.59728L38.6124 1.65ZM41.8824 3.78L41.122 4.42953L41.1298 4.4385L41.8824 3.78ZM43.6524 7.47L42.6772 7.69106L42.6789 7.69872L42.6808 7.70635L43.6524 7.47ZM43.7124 17.94L44.6892 18.1541L44.6898 18.1513L43.7124 17.94ZM42.0024 21.6L41.2354 20.9582L41.2278 20.9676L42.0024 21.6ZM38.7324 23.82L39.0653 24.763L39.0731 24.7602L38.7324 23.82ZM28.3824 23.82L28.0374 24.7586L28.0456 24.7616L28.0539 24.7645L28.3824 23.82ZM25.1124 21.6L24.3377 22.2324L24.3455 22.2417L25.1124 21.6ZM23.4324 17.94L22.455 18.1513L22.4556 18.1541L23.4324 17.94ZM30.6924 18.39H29.6924V19.39H30.6924V18.39ZM35.8224 18.06L36.2864 18.9458L36.2939 18.9419L36.3013 18.9379L35.8224 18.06ZM36.4824 7.11H37.4824V6.11H36.4824V7.11ZM31.3524 7.47L31.7996 8.36443L31.8156 8.35644L31.8313 8.34789L31.3524 7.47ZM22.9524 12.78H23.9524C23.9524 10.7706 24.1187 9.07972 24.437 7.6939L23.4624 7.47L22.4878 7.2461C22.1262 8.82028 21.9524 10.6694 21.9524 12.78H22.9524ZM23.4624 7.47L24.4348 7.70337C24.766 6.32331 25.2956 5.24571 25.9928 4.42949L25.2324 3.78L24.472 3.13051C23.5292 4.23428 22.8788 5.61669 22.49 7.23663L23.4624 7.47ZM25.2324 3.78L25.985 4.4385C26.6949 3.62719 27.6384 3.00803 28.8528 2.59728L28.5324 1.65L28.212 0.702717C26.7064 1.21196 25.4499 2.0128 24.4798 3.1215L25.2324 3.78ZM28.5324 1.65L28.8528 2.59728C30.0779 2.18293 31.6419 1.96 33.5724 1.96V0.96V-0.0400002C31.503 -0.0400002 29.707 0.197071 28.212 0.702717L28.5324 1.65ZM33.5724 0.96V1.96C35.525 1.96 37.0864 2.18341 38.2877 2.59582L38.6124 1.65L38.9371 0.704176C37.4585 0.196585 35.6599 -0.0400002 33.5724 -0.0400002V0.96ZM38.6124 1.65L38.292 2.59728C39.5051 3.00759 40.4345 3.6246 41.122 4.42948L41.8824 3.78L42.6428 3.13051C41.6903 2.0154 40.4397 1.21241 38.9328 0.702717L38.6124 1.65ZM41.8824 3.78L41.1298 4.4385C41.84 5.25016 42.3664 6.31997 42.6772 7.69106L43.6524 7.47L44.6277 7.24894C44.2585 5.62003 43.6048 4.22984 42.635 3.12149L41.8824 3.78ZM43.6524 7.47L42.6808 7.70635C43.0167 9.0873 43.1924 10.7737 43.1924 12.78H44.1924H45.1924C45.1924 10.6663 45.0082 8.8127 44.6241 7.23365L43.6524 7.47ZM44.1924 12.78H43.1924C43.1924 14.6885 43.0364 16.3349 42.735 17.7287L43.7124 17.94L44.6898 18.1513C45.0285 16.5851 45.1924 14.7915 45.1924 12.78H44.1924ZM43.7124 17.94L42.7356 17.7259C42.4442 19.0553 41.9359 20.1212 41.2355 20.9583L42.0024 21.6L42.7694 22.2417C43.709 21.1188 44.3406 19.7447 44.6892 18.1541L43.7124 17.94ZM42.0024 21.6L41.2278 20.9676C40.5592 21.7866 39.6296 22.4313 38.3918 22.8798L38.7324 23.82L39.0731 24.7602C40.5953 24.2087 41.8456 23.3734 42.7771 22.2324L42.0024 21.6ZM38.7324 23.82L38.3996 22.877C37.1825 23.3066 35.5848 23.54 33.5724 23.54V24.54V25.54C35.7201 25.54 37.5624 25.2934 39.0652 24.763L38.7324 23.82ZM33.5724 24.54V23.54C31.5609 23.54 29.9509 23.3068 28.7109 22.8755L28.3824 23.82L28.0539 24.7645C29.5739 25.2932 31.424 25.54 33.5724 25.54V24.54ZM28.3824 23.82L28.7275 22.8814C27.5093 22.4335 26.5727 21.787 25.8794 20.9583L25.1124 21.6L24.3455 22.2417C25.2921 23.373 26.5356 24.2065 28.0374 24.7586L28.3824 23.82ZM25.1124 21.6L25.8871 20.9676C25.2029 20.1295 24.7017 19.0602 24.4092 17.7259L23.4324 17.94L22.4556 18.1541C22.8032 19.7398 23.422 21.1105 24.3378 22.2324L25.1124 21.6ZM23.4324 17.94L24.4098 17.7287C24.1085 16.3349 23.9524 14.6885 23.9524 12.78H22.9524H21.9524C21.9524 14.7915 22.1164 16.5851 22.455 18.1513L23.4324 17.94ZM30.6924 9.03H29.6924V18.39H30.6924H31.6924V9.03H30.6924ZM30.6924 18.39V19.39H33.6924V18.39V17.39H30.6924V18.39ZM33.6924 18.39V19.39C34.7126 19.39 35.6358 19.2866 36.2864 18.9458L35.8224 18.06L35.3584 17.1742C35.169 17.2734 34.6722 17.39 33.6924 17.39V18.39ZM35.8224 18.06L36.3013 18.9379C37.2324 18.43 37.4824 17.4097 37.4824 16.47H36.4824H35.4824C35.4824 16.8005 35.4367 16.9959 35.3938 17.0991C35.374 17.147 35.3575 17.1683 35.3519 17.1748C35.3474 17.1801 35.3458 17.1809 35.3436 17.1821L35.8224 18.06ZM36.4824 16.47H37.4824V7.11H36.4824H35.4824V16.47H36.4824ZM36.4824 7.11V6.11H33.4524V7.11V8.11H36.4824V7.11ZM33.4524 7.11V6.11C32.4521 6.11 31.5418 6.22764 30.8736 6.5921L31.3524 7.47L31.8313 8.34789C32.0431 8.23236 32.5327 8.11 33.4524 8.11V7.11ZM31.3524 7.47L30.9052 6.57557C29.9389 7.05872 29.6924 8.10038 29.6924 9.03H30.6924H31.6924C31.6924 8.69831 31.7385 8.50884 31.7784 8.41464C31.8101 8.33959 31.8238 8.35236 31.7996 8.36443L31.3524 7.47ZM61.1082 18.24H62.1082V17.24H61.1082V18.24ZM61.1082 24V25H62.1082V24H61.1082ZM46.7082 24H45.7082V25H46.7082V24ZM46.7082 1.5V0.499998H45.7082V1.5H46.7082ZM53.9082 1.5H54.9082V0.499998H53.9082V1.5ZM53.9082 18.24H52.9082V19.24H53.9082V18.24ZM61.1082 18.24H60.1082V24H61.1082H62.1082V18.24H61.1082ZM61.1082 24V23H46.7082V24V25H61.1082V24ZM46.7082 24H47.7082V1.5H46.7082H45.7082V24H46.7082ZM46.7082 1.5V2.5H53.9082V1.5V0.499998H46.7082V1.5ZM53.9082 1.5H52.9082V18.24H53.9082H54.9082V1.5H53.9082ZM53.9082 18.24V19.24H61.1082V18.24V17.24H53.9082V18.24ZM77.4852 18.24H78.4852V17.24H77.4852V18.24ZM77.4852 24V25H78.4852V24H77.4852ZM63.0852 24H62.0852V25H63.0852V24ZM63.0852 1.5V0.499998H62.0852V1.5H63.0852ZM70.2852 1.5H71.2852V0.499998H70.2852V1.5ZM70.2852 18.24H69.2852V19.24H70.2852V18.24ZM77.4852 18.24H76.4852V24H77.4852H78.4852V18.24H77.4852ZM77.4852 24V23H63.0852V24V25H77.4852V24ZM63.0852 24H64.0852V1.5H63.0852H62.0852V24H63.0852ZM63.0852 1.5V2.5H70.2852V1.5V0.499998H63.0852V1.5ZM70.2852 1.5H69.2852V18.24H70.2852H71.2852V1.5H70.2852ZM70.2852 18.24V19.24H77.4852V18.24V17.24H70.2852V18.24ZM85.6421 20.43V19.43H84.8436L84.6669 20.2087L85.6421 20.43ZM84.8321 24V25H85.6306L85.8073 24.2213L84.8321 24ZM77.2421 24L76.274 23.7496L75.9505 25H77.2421V24ZM83.0621 1.5V0.499998H82.2879L82.094 1.24957L83.0621 1.5ZM94.1921 1.5L95.1602 1.24957L94.9664 0.499998H94.1921V1.5ZM100.012 24V25H101.304L100.98 23.7496L100.012 24ZM92.4221 24L91.4487 24.229L91.6301 25H92.4221V24ZM91.5821 20.43L92.5555 20.201L92.3741 19.43H91.5821V20.43ZM88.8221 8.4L89.797 8.17717L89.6193 7.4H88.8221V8.4ZM88.4321 8.4V7.4H87.6386L87.4583 8.17277L88.4321 8.4ZM86.9621 14.7L85.9883 14.4728L85.7019 15.7H86.9621V14.7ZM90.2621 14.7V15.7H91.5165L91.237 14.4772L90.2621 14.7ZM85.6421 20.43L84.6669 20.2087L83.8569 23.7787L84.8321 24L85.8073 24.2213L86.6173 20.6513L85.6421 20.43ZM84.8321 24V23H77.2421V24V25H84.8321V24ZM77.2421 24L78.2102 24.2504L84.0302 1.75042L83.0621 1.5L82.094 1.24957L76.274 23.7496L77.2421 24ZM83.0621 1.5V2.5H94.1921V1.5V0.499998H83.0621V1.5ZM94.1921 1.5L93.224 1.75042L99.044 24.2504L100.012 24L100.98 23.7496L95.1602 1.24957L94.1921 1.5ZM100.012 24V23H92.4221V24V25H100.012V24ZM92.4221 24L93.3955 23.771L92.5555 20.201L91.5821 20.43L90.6087 20.659L91.4487 24.229L92.4221 24ZM91.5821 20.43V19.43H85.6421V20.43V21.43H91.5821V20.43ZM88.8221 8.4V7.4H88.4321V8.4V9.4H88.8221V8.4ZM88.4321 8.4L87.4583 8.17277L85.9883 14.4728L86.9621 14.7L87.936 14.9272L89.406 8.62723L88.4321 8.4ZM86.9621 14.7V15.7H90.2621V14.7V13.7H86.9621V14.7ZM90.2621 14.7L91.237 14.4772L89.797 8.17717L88.8221 8.4L87.8473 8.62282L89.2873 14.9228L90.2621 14.7Z" fill="#DD9000" mask="url(#path-1-inside-1_1259_22867)"/>
<defs>
<filter id="filter0_i_1259_22867" x="0.799805" y="0.960022" width="99.2119" height="23.58" filterUnits="userSpaceOnUse" color-interpolation-filters="sRGB">
<feFlood flood-opacity="0" result="BackgroundImageFix"/>
<feBlend mode="normal" in="SourceGraphic" in2="BackgroundImageFix" result="shape"/>
<feColorMatrix in="SourceAlpha" type="matrix" values="0 0 0 0 0 0 0 0 0 0 0 0 0 0 0 0 0 0 127 0" result="hardAlpha"/>
<feOffset dx="1" dy="1"/>
<feComposite in2="hardAlpha" operator="arithmetic" k2="-1" k3="1"/>
<feColorMatrix type="matrix" values="0 0 0 0 0 0 0 0 0 0 0 0 0 0 0 0 0 0 0.25 0"/>
<feBlend mode="normal" in2="shape" result="effect1_innerShadow_1259_22867"/>
</filter>
<linearGradient id="paint0_linear_1259_22867" x1="-1" y1="15" x2="100" y2="15" gradientUnits="userSpaceOnUse">
<stop stop-color="#FFCE52"/>
<stop offset="1" stop-color="#FFE9B2"/>
</linearGradient>
</defs>
</svg>
