<svg width="14" height="17" viewBox="0 0 14 17" fill="none" xmlns="http://www.w3.org/2000/svg">
<path d="M6.86475 0.00208784C8.86625 0.0507767 10.462 0.658941 11.6509 1.82631C12.8398 2.9937 13.4116 4.51922 13.3657 6.40248C13.3208 8.24645 12.6764 9.723 11.4321 10.8312C10.9278 11.2804 10.3597 11.6316 9.73097 11.8908C11.3332 12.6922 11.9798 14.1052 12.0357 14.9425C12.0094 14.9591 10.1928 16.1046 6.82472 16.1046C3.43219 16.1046 1.80128 14.9425 1.80128 14.9425C1.96316 14.1333 2.53407 12.7867 3.98487 11.9738C3.12213 11.669 2.36595 11.211 1.71827 10.5949C0.529351 9.42747 -0.0424333 7.9213 0.00245006 6.07728C0.0483029 4.19406 0.693705 2.69817 1.938 1.58998C3.22141 0.483011 4.8636 -0.0465137 6.86475 0.00208784Z" fill="#BBACA6"/>
<path d="M4.2688 3.96094L4.2688 5.60975" stroke="black" stroke-width="1.6" stroke-linecap="round"/>
<path d="M9.81982 4.29004L8.22674 4.71678" stroke="black" stroke-width="1.6" stroke-linecap="round"/>
<path d="M4.43457 8.08288C5.754 8.90729 8.55778 8.74241 9.8772 6.92871" stroke="black" stroke-width="1.6" stroke-linecap="round"/>
</svg>
