<svg width="13" height="11" viewBox="0 0 13 11" fill="none" xmlns="http://www.w3.org/2000/svg">
<path d="M5.63398 0.499999C6.01888 -0.166667 6.98113 -0.166667 7.36603 0.5L12.1292 8.75C12.5141 9.41667 12.0329 10.25 11.2631 10.25H1.73686C0.967059 10.25 0.485935 9.41667 0.870835 8.75L5.63398 0.499999Z" fill="#FFC42F"/>
<path d="M5.85 6.7V2H7.13V6.7H5.85ZM6.5 9.14C6.22667 9.14 5.99667 9.05333 5.81 8.88C5.63 8.7 5.54 8.47 5.54 8.19C5.54 7.91 5.63 7.68333 5.81 7.51C5.99667 7.33 6.22667 7.24 6.5 7.24C6.76667 7.24 6.99 7.33 7.17 7.51C7.35 7.68333 7.44 7.91 7.44 8.19C7.44 8.47 7.35 8.7 7.17 8.88C6.99 9.05333 6.76667 9.14 6.5 9.14Z" fill="black"/>
</svg>
