<svg width="13" height="14" viewBox="0 0 13 14" fill="none" xmlns="http://www.w3.org/2000/svg">
<path d="M12.8975 12.0449C12.9037 12.6813 9.87782 14 6.36328 14C2.8488 14 0 12.7272 0 12.0908L0.00585938 10.1816C0.723974 10.6059 2.99593 11.4541 6.36328 11.4541C9.73069 11.4541 12.1793 10.818 12.8975 10.1816V12.0449ZM12.8975 7.59082C12.9035 8.2272 9.87775 9.5459 6.36328 9.5459C2.84937 9.54587 0.000930709 8.27318 0 7.63672L0.00585938 5.72754C0.723974 6.15178 2.99593 6.99998 6.36328 7C9.7304 7 12.1791 6.36385 12.8975 5.72754V7.59082ZM6.37012 0C9.88453 5.75454e-05 12.7334 1.14012 12.7334 2.5459C12.7328 3.95147 9.88416 5.09076 6.37012 5.09082C2.85595 5.09082 0.0064589 3.95151 0.00585938 2.5459C0.00585938 1.14008 2.85558 0 6.37012 0Z" fill="#BBACA6"/>
</svg>
